<svg width="50" height="45" viewBox="0 0 50 45" fill="none" xmlns="http://www.w3.org/2000/svg">
<g clip-path="url(#clip0_391_4)">
<path d="M61.8646 16.1558C61.6256 16.1432 61.3866 16.1306 61.1346 16.1306H49.7246V19.1011H52.4196L52.4576 37.8726H62.0796C65.0266 37.8726 67.3936 36.9119 69.1316 35.041C70.8696 33.2081 71.7886 30.6547 71.7886 27.4061C71.7886 24.031 70.7936 21.288 68.7536 19.2275C66.9406 17.3441 64.6106 16.3075 61.8646 16.1558ZM64.5346 32.3486C63.8546 33.5621 62.9606 34.3837 61.8646 34.8135C61.2986 35.0284 60.6936 35.1422 60.0136 35.1422H57.9866V18.9242H59.8496C60.5806 18.9242 61.2476 19.0379 61.8646 19.2655C62.4066 19.4677 62.8976 19.7711 63.3386 20.1503C64.2956 21.0225 65.0006 22.1602 65.3666 23.5759C65.6176 24.5366 65.7436 25.5352 65.7436 26.4959C65.7436 28.8724 65.3286 30.7938 64.5346 32.3486ZM107.115 16.1306C106.737 16.1306 106.448 16.2696 106.158 16.5856C105.906 16.8637 105.78 17.2177 105.78 17.6348C105.78 18.0519 105.906 18.368 106.158 18.684C106.41 18.9621 106.737 19.0885 107.115 19.0885H111.133V37.8599H116.649V19.1011H122.001V16.1306H107.115ZM84.6226 34.9146H78.8916V28.2024H85.4906V25.2445H78.8546V19.1011H84.5466C84.9246 19.1011 85.2516 18.9621 85.5036 18.6966C85.7556 18.3806 85.8816 18.0519 85.8816 17.6474C85.8816 17.2429 85.7556 16.8764 85.5036 16.5983C85.2136 16.2822 84.8866 16.1432 84.5086 16.1432H75.1266C74.6726 16.1432 74.2066 16.3707 73.8416 16.7373C73.5146 17.1418 73.3006 17.5969 73.3006 18.1531L73.3376 37.8852H84.6226C84.9996 37.8852 85.3276 37.7082 85.6166 37.4301C85.9066 37.152 86.0326 36.7855 85.9946 36.381C85.9946 35.9638 85.8686 35.5972 85.5796 35.3318C85.3276 35.041 84.9996 34.9146 84.6226 34.9146ZM98.8156 25.2319H92.8836V18.8736C92.8836 18.507 92.8456 18.1025 92.7196 17.7359C92.5566 17.3693 92.3426 17.0533 92.1026 16.7247C91.8506 16.4466 91.5616 16.1685 91.2336 16.0421C90.8556 15.8651 90.5286 15.8145 90.2016 15.8145C89.8236 15.8145 89.4956 15.8651 89.1186 16.0421C88.7906 16.1811 88.5006 16.4466 88.1986 16.7247C87.9466 17.0407 87.7456 17.3693 87.5816 17.7359C87.4176 18.1025 87.3806 18.507 87.3806 18.8736V37.8726H92.8966V28.1898H98.8276V35.1295C98.8276 35.5467 98.9166 35.9512 99.0416 36.3683C99.1676 36.7349 99.3696 37.0509 99.6216 37.329C99.8736 37.5565 100.201 37.7841 100.529 37.9737C100.856 38.1127 101.234 38.2012 101.612 38.2012C101.989 38.2012 102.367 38.1127 102.695 37.9737C103.022 37.7967 103.312 37.5565 103.564 37.2911C103.815 37.013 103.979 36.697 104.143 36.3304C104.269 35.9638 104.344 35.5972 104.344 35.1422L104.382 16.1432H98.8156V25.2319Z" fill="#D90800"/>
<path fill-rule="evenodd" clip-rule="evenodd" d="M27.1054 10.7589C25.5434 10.7589 23.9564 10.2027 22.7604 9.242C21.6904 8.38243 20.3924 6.75178 20.2414 3.88234L20.1914 2.79524L21.2114 3.1871C22.7984 3.8065 24.9394 4.13516 27.2064 4.13516H27.2694C29.6244 4.12252 31.8284 3.74329 33.3014 3.09862L34.3214 2.64355L34.2964 3.76858C34.1704 8.53412 30.0524 10.5693 27.4954 10.7462C27.4324 10.7462 27.3574 10.7589 27.2694 10.7589C27.2314 10.7589 27.1684 10.7589 27.1054 10.7589Z" fill="white"/>
<path fill-rule="evenodd" clip-rule="evenodd" d="M12.2695 22.3632C12.3575 22.2747 12.4205 22.1736 12.5095 22.0851C8.57949 17.5471 5.14149 12.5793 1.61549 8.06659C-0.52551 5.32355 1.28749 3.03559 3.37849 5.32355C6.65249 8.88823 10.1665 13.2113 15.5065 19.1904C15.5945 19.1019 15.5315 19.3042 15.6195 19.2157C11.4765 14.1468 7.3325 9.07784 3.2025 3.99628C1.1245 1.4555 2.6985 -1.00943 5.1035 1.41758C9.7505 6.082 14.3985 10.7464 19.0455 15.4235C19.1455 15.3097 18.9695 15.4867 19.0705 15.3729C15.2795 11.2394 11.6655 7.86433 8.2395 3.5665C6.1995 1.00044 8.22749 -0.57965 10.7085 1.74624C11.5015 2.49204 13.8315 4.89377 16.6395 7.72529C19.0325 10.127 21.7275 12.9459 24.5105 14.3869C25.8085 15.0442 27.9865 17.1173 30.2155 16.953C31.6135 16.8645 32.1675 14.7156 32.8985 13.7802C34.2715 12.0105 35.5805 8.85031 37.9105 8.20563C40.9835 7.37135 40.0015 8.71126 38.7165 10.8349C36.2235 14.9558 36.3745 18.1286 35.5435 21.2003C35.4805 21.4152 33.3645 25.6751 33.3395 28.772C33.3265 29.2018 33.3265 29.6316 33.3145 30.0361L25.1025 39.0363C19.0325 35.5854 14.0325 31.0979 9.5625 25.1315C7.1445 22.2115 4.8395 19.6834 2.3835 16.7128C0.318495 14.1973 1.14949 12.0737 3.73149 14.2732C6.81649 16.9024 9.1845 19.7213 12.2695 22.3632Z" fill="white"/>
<path fill-rule="evenodd" clip-rule="evenodd" d="M35.2291 28.6455L38.3021 31.9826C38.4651 32.1596 38.4651 32.4377 38.3021 32.6273L28.0001 43.9155C27.8241 44.1051 27.5471 44.1177 27.3451 43.9534L23.8691 41.0081L35.2291 28.6455Z" fill="#016CCE"/>
<path fill-rule="evenodd" clip-rule="evenodd" d="M36.1606 0.355953C33.3766 0.924785 30.1026 1.55682 27.2816 1.55682H27.2686C24.4226 1.55682 21.0607 0.836299 18.2267 0.242188C18.1137 9.09067 22.7096 13.5023 27.2686 13.5276C31.8656 13.5528 36.4246 9.14124 36.1606 0.355953ZM27.4456 10.0387C27.3946 10.0387 27.3316 10.0514 27.2686 10.0514C24.8256 10.1272 21.1867 8.61033 20.9467 3.85743C22.6977 4.54002 25.0026 4.86868 27.2686 4.85604C29.6236 4.8434 31.9536 4.47682 33.5906 3.7563C33.4776 7.97829 29.9016 9.88704 27.4456 10.0387Z" fill="#D90800"/>
<path d="M40.2028 7.88948C39.8758 7.4597 39.1828 7.43442 37.7978 7.801C35.9338 8.31927 34.7118 10.228 33.6418 11.9219C33.2758 12.5033 32.9238 13.0595 32.5708 13.5146C32.3318 13.818 32.1298 14.2098 31.9038 14.6396C31.4498 15.4992 30.9338 16.4852 30.1778 16.5357C28.6798 16.6495 27.1558 15.6256 25.9218 14.7913C25.4558 14.4753 25.0528 14.2098 24.6878 14.0202C22.1438 12.7056 19.5998 10.1522 17.3708 7.88948L16.9298 7.43442C15.8468 6.34732 14.8388 5.32342 13.9578 4.42593C12.5218 2.95961 11.4768 1.91044 10.9848 1.44273C9.43582 -0.0109493 8.08882 -0.0362307 7.42082 0.570522C6.92982 1.02559 6.71581 1.961 7.50981 3.25035C6.80381 2.54247 6.09882 1.83459 5.39382 1.11407C4.03382 -0.251123 2.92481 -0.175279 2.34581 0.35563C1.60281 1.02559 1.53981 2.6436 2.89981 4.28688C2.87481 4.31217 2.87482 4.32481 2.87482 4.32481C2.87482 4.32481 2.87482 4.32481 2.86182 4.33745C1.99282 3.78126 1.24982 3.93295 0.809817 4.29953C0.0158168 4.98212 -0.0721864 6.57485 1.28781 8.31927C2.53481 9.91199 3.80683 11.6058 5.02883 13.2365C6.64083 15.3854 8.28982 17.5849 10.0278 19.7338C9.43582 19.165 8.86981 18.5961 8.31581 18.0273C6.95481 16.6748 5.55682 15.2716 3.98282 13.9317C2.25782 12.4528 1.42681 12.9331 1.14981 13.2112C0.443813 13.9065 0.821819 15.436 2.05582 16.9402C3.27782 18.4065 4.47381 19.7844 5.61981 21.1243C6.79181 22.4768 8.01282 23.88 9.22182 25.3463C13.6678 31.2748 18.5168 35.6611 24.4358 39.112L23.8058 39.8072C23.5038 40.1485 23.5288 40.6668 23.8558 40.9702L35.2158 28.6076L35.2028 28.5949C34.8628 28.241 34.2968 28.2536 33.9818 28.6202L33.7298 28.911C33.7298 28.8477 33.7298 28.7972 33.7298 28.734C33.7418 27.0148 34.4348 24.6258 35.7698 21.6299C35.8708 21.3897 35.9088 21.3265 35.9208 21.276C36.1728 20.3658 36.3238 19.4684 36.5008 18.5203C36.9038 16.2323 37.3318 13.8812 39.0568 11.0117L39.2838 10.6325C40.1018 9.34316 40.6438 8.47095 40.2028 7.88948ZM38.6038 10.2407L38.3768 10.6199C36.5628 13.6031 36.1098 16.1565 35.7198 18.4065C35.5558 19.3419 35.3918 20.2142 35.1658 21.0737C35.1528 21.1116 35.1148 21.2001 35.0518 21.3392C33.6668 24.4361 32.9618 26.939 32.9358 28.7719C32.9358 28.9868 32.9238 29.2143 32.9238 29.4292C32.9238 29.5809 32.9238 29.7326 32.9238 29.8843L25.0398 38.5179C19.1458 35.1175 14.3348 30.7818 9.88982 24.8659C8.66782 23.387 7.44682 21.9712 6.26282 20.6187C5.10382 19.2914 3.91982 17.9135 2.71082 16.4472C1.57782 15.0694 1.52682 14.0455 1.74182 13.8306C1.77882 13.7927 1.85481 13.7674 1.95581 13.7674C2.23281 13.7674 2.74882 13.9697 3.47982 14.589C5.02882 15.9037 6.41382 17.2942 7.76082 18.6467C8.83182 19.7212 11.1108 21.8195 11.9798 22.6285C12.1688 22.8055 12.4718 22.7929 12.6478 22.6032L12.8238 22.4136C12.9748 22.2367 12.9878 21.9839 12.8488 21.7942C11.7908 20.4796 7.69781 15.3854 5.73381 12.7688C4.49981 11.1255 3.23982 9.43165 1.98082 7.83892C0.884822 6.4358 0.972827 5.31078 1.38883 4.95684C1.76683 4.64082 2.45882 4.90628 3.12682 5.6268C4.77682 7.42178 6.47681 9.40637 8.45381 11.707C10.1158 13.641 14.1338 18.2169 15.2548 19.4936C15.4178 19.6832 15.6958 19.6959 15.8838 19.5316C16.0608 19.3672 16.0858 19.1018 15.9348 18.9122C14.4488 17.0919 7.26981 8.30662 3.56781 3.74334C2.50981 2.44134 2.57282 1.32896 2.95082 0.987665C3.26482 0.70957 3.97082 0.823336 4.86482 1.72082C9.15882 6.04394 13.4658 10.3671 17.7738 14.6902L18.7808 15.7014C18.9568 15.8784 19.2468 15.8658 19.4108 15.6888C19.5618 15.5245 19.5618 15.259 19.3978 15.0947C18.6548 14.311 16.6018 12.1115 15.5948 11.0623C13.1518 8.53416 10.8588 6.14507 8.60481 3.32619C7.77381 2.27702 7.72381 1.48065 8.03781 1.20256C8.40381 0.861258 9.38581 1.05087 10.4818 2.07476C10.9598 2.52983 12.0558 3.62957 13.4288 5.03269C14.3098 5.93017 15.3178 6.95407 16.4008 8.04117L16.8418 8.48359C19.1208 10.7842 21.7028 13.3882 24.3728 14.766C24.6878 14.9303 25.0778 15.1832 25.5188 15.4865C26.7778 16.3335 28.5028 17.509 30.2918 17.37C31.5128 17.2942 32.1678 16.0427 32.6848 15.0315C32.8858 14.6523 33.0748 14.2857 33.2638 14.0329C33.6418 13.5525 33.9938 12.9837 34.3718 12.3769C35.3668 10.8095 36.4878 9.02714 38.0498 8.61C39.1448 8.30663 39.4848 8.36983 39.5728 8.39511C39.5478 8.67321 39.0068 9.57069 38.6038 10.2407Z" fill="#182341"/>
</g>
<defs>
<clipPath id="clip0_391_4">
<rect width="50" height="45" fill="white"/>
</clipPath>
</defs>
</svg>
