<svg width="250" height="45" viewBox="0 0 250 45" fill="none" xmlns="http://www.w3.org/2000/svg">
<path d="M189.864 16.1562C189.625 16.1436 189.386 16.131 189.134 16.131H177.724V19.1015H180.419L180.457 37.873H190.079C193.026 37.873 195.393 36.9123 197.131 35.0414C198.869 33.2085 199.788 30.6551 199.788 27.4065C199.788 24.0314 198.793 21.2884 196.753 19.2279C194.94 17.3445 192.61 16.3079 189.864 16.1562ZM192.534 32.349C191.854 33.5625 190.96 34.3841 189.864 34.8139C189.298 35.0288 188.693 35.1426 188.013 35.1426H185.986V18.9246H187.849C188.58 18.9246 189.247 19.0383 189.864 19.2659C190.406 19.4681 190.897 19.7715 191.338 20.1507C192.295 21.0229 193 22.1606 193.366 23.5763C193.617 24.537 193.743 25.5356 193.743 26.4963C193.743 28.8728 193.328 30.7942 192.534 32.349ZM235.114 16.131C234.736 16.131 234.447 16.27 234.157 16.586C233.905 16.8641 233.779 17.2181 233.779 17.6352C233.779 18.0523 233.905 18.3684 234.157 18.6844C234.409 18.9625 234.736 19.0889 235.114 19.0889H239.132V37.8603H244.648V19.1015H250V16.131H235.114ZM212.622 34.915H206.891V28.2028H213.49V25.2449H206.854V19.1015H212.546C212.924 19.1015 213.251 18.9625 213.503 18.697C213.755 18.381 213.881 18.0523 213.881 17.6478C213.881 17.2433 213.755 16.8768 213.503 16.5987C213.213 16.2826 212.886 16.1436 212.508 16.1436H203.126C202.672 16.1436 202.206 16.3711 201.841 16.7377C201.514 17.1422 201.3 17.5973 201.3 18.1535L201.337 37.8856H212.622C212.999 37.8856 213.327 37.7086 213.616 37.4305C213.906 37.1524 214.032 36.7859 213.994 36.3814C213.994 35.9642 213.868 35.5976 213.579 35.3322C213.327 35.0414 212.999 34.915 212.622 34.915ZM226.815 25.2323H220.883V18.874C220.883 18.5074 220.845 18.1029 220.719 17.7363C220.556 17.3697 220.342 17.0537 220.102 16.7251C219.85 16.447 219.561 16.1689 219.233 16.0425C218.855 15.8655 218.528 15.8149 218.201 15.8149C217.823 15.8149 217.495 15.8655 217.118 16.0425C216.79 16.1815 216.5 16.447 216.198 16.7251C215.946 17.0411 215.745 17.3697 215.581 17.7363C215.417 18.1029 215.38 18.5074 215.38 18.874V37.873H220.896V28.1902H226.827V35.1299C226.827 35.5471 226.916 35.9516 227.041 36.3687C227.167 36.7353 227.369 37.0513 227.621 37.3294C227.873 37.5569 228.2 37.7845 228.528 37.9741C228.855 38.1131 229.233 38.2016 229.611 38.2016C229.988 38.2016 230.366 38.1131 230.694 37.9741C231.021 37.7971 231.311 37.5569 231.563 37.2915C231.814 37.0134 231.978 36.6974 232.142 36.3308C232.268 35.9642 232.343 35.5976 232.343 35.1426L232.381 16.1436H226.815V25.2323Z" fill="#D90800"/>
<path fill-rule="evenodd" clip-rule="evenodd" d="M155.106 10.7589C153.544 10.7589 151.957 10.2027 150.761 9.242C149.691 8.38243 148.393 6.75178 148.242 3.88234L148.192 2.79524L149.212 3.1871C150.799 3.8065 152.94 4.13516 155.207 4.13516H155.27C157.625 4.12252 159.829 3.74329 161.302 3.09862L162.322 2.64355L162.297 3.76858C162.171 8.53412 158.053 10.5693 155.496 10.7462C155.433 10.7462 155.358 10.7589 155.27 10.7589C155.232 10.7589 155.169 10.7589 155.106 10.7589Z" fill="white"/>
<path fill-rule="evenodd" clip-rule="evenodd" d="M140.27 22.3632C140.358 22.2747 140.421 22.1736 140.51 22.0851C136.58 17.5471 133.142 12.5793 129.616 8.06659C127.475 5.32355 129.288 3.03559 131.379 5.32355C134.653 8.88823 138.167 13.2113 143.507 19.1904C143.595 19.1019 143.532 19.3042 143.62 19.2157C139.477 14.1468 135.333 9.07784 131.203 3.99628C129.125 1.4555 130.699 -1.00943 133.104 1.41758C137.751 6.082 142.399 10.7464 147.046 15.4235C147.146 15.3097 146.97 15.4867 147.071 15.3729C143.28 11.2394 139.666 7.86433 136.24 3.5665C134.2 1.00044 136.228 -0.579649 138.709 1.74624C139.502 2.49204 141.832 4.89377 144.64 7.72529C147.033 10.127 149.728 12.9459 152.511 14.3869C153.809 15.0442 155.987 17.1173 158.216 16.953C159.614 16.8645 160.168 14.7156 160.899 13.7802C162.272 12.0105 163.581 8.85031 165.911 8.20563C168.984 7.37135 168.002 8.71126 166.717 10.8349C164.224 14.9558 164.375 18.1286 163.544 21.2003C163.481 21.4152 161.365 25.6751 161.34 28.772C161.327 29.2018 161.327 29.6316 161.315 30.0361L153.103 39.0363C147.033 35.5854 142.033 31.0979 137.563 25.1315C135.145 22.2115 132.84 19.6834 130.384 16.7128C128.319 14.1973 129.15 12.0737 131.732 14.2732C134.817 16.9024 137.185 19.7213 140.27 22.3632Z" fill="white"/>
<path fill-rule="evenodd" clip-rule="evenodd" d="M163.229 28.6455L166.302 31.9826C166.465 32.1596 166.465 32.4377 166.302 32.6273L156 43.9155C155.824 44.1051 155.547 44.1177 155.345 43.9534L151.869 41.0081L163.229 28.6455Z" fill="#016CCE"/>
<path fill-rule="evenodd" clip-rule="evenodd" d="M164.161 0.355954C161.377 0.924785 158.103 1.55682 155.282 1.55682H155.269C152.423 1.55682 149.061 0.8363 146.227 0.242188C146.114 9.09067 150.71 13.5023 155.269 13.5276C159.866 13.5528 164.425 9.14124 164.161 0.355954ZM155.446 10.0387C155.395 10.0387 155.332 10.0514 155.269 10.0514C152.826 10.1272 149.187 8.61033 148.947 3.85743C150.698 4.54002 153.003 4.86868 155.269 4.85604C157.624 4.8434 159.954 4.47682 161.591 3.7563C161.478 7.97829 157.902 9.88704 155.446 10.0387Z" fill="#D90800"/>
<path d="M116.443 17.8756C115.158 16.738 113.458 16.1439 111.304 16.1439H104.126C103.584 16.1439 103.169 16.3714 102.803 16.738C102.438 17.1425 102.224 17.5975 102.224 18.1537L102.262 37.8859H107.803V29.1132H112.198C114.025 29.1132 115.523 28.6582 116.682 27.6975C117.929 26.6862 118.546 25.182 118.546 23.1721C118.558 20.8462 117.853 19.0639 116.443 17.8756ZM110.322 26.1047C110.133 26.13 109.932 26.1427 109.717 26.1427H107.803V19.1018H109.503C109.793 19.1018 110.057 19.1271 110.309 19.1776C110.977 19.304 111.531 19.6074 111.947 20.0625C112.526 20.7072 112.816 21.6173 112.816 22.8055C112.828 24.8154 111.984 25.9025 110.322 26.1047ZM12.1153 16.1565C11.876 16.1439 11.6493 16.1439 11.41 16.1439H0V19.1018H2.6573L2.69508 37.8732H12.3294C15.2763 37.8732 17.644 36.9125 19.3819 35.0417C21.1199 33.2088 22.0392 30.6554 22.0392 27.4067C22.0392 24.0317 21.0443 21.2886 19.0041 19.2282C17.1654 17.3447 14.8355 16.3082 12.1153 16.1565ZM15.9816 26.5092C15.9816 28.8857 15.566 30.8071 14.7726 32.3619C14.1177 33.5754 13.2235 34.397 12.1153 34.8268C11.5611 35.0417 10.944 35.1428 10.2892 35.1428H8.21118V18.9248H10.0751C10.8181 18.9248 11.4856 19.0512 12.1027 19.2788C12.6316 19.481 13.1102 19.7717 13.551 20.151C14.5585 20.9726 15.2133 22.1608 15.6289 23.5766C15.8808 24.5373 15.9942 25.5359 15.9942 26.4966H15.9816V26.5092ZM90.3607 15.5371H90.3355C87.3382 15.5371 84.8572 16.6748 82.8674 18.8743C80.8776 21.0232 79.8449 23.7662 79.8449 27.0022C79.8449 30.2382 80.8398 32.9813 82.8674 35.1808C84.8572 37.3676 87.3508 38.4673 90.3355 38.4673H90.3607C93.3455 38.4673 95.8265 37.3676 97.8037 35.1808C99.7935 32.9813 100.839 30.2382 100.839 27.0022C100.839 23.7536 99.8061 21.0232 97.8037 18.8743C95.7761 16.6874 93.3329 15.5498 90.3607 15.5371ZM94.0255 32.6273C93.3329 34.7636 92.0861 35.8634 90.3607 35.876H90.3355C88.182 35.876 86.8093 34.1442 86.1796 30.7565C85.9655 29.6568 85.8899 28.3801 85.8899 27.0149C85.8899 24.828 86.1418 22.9066 86.6833 21.3518C87.4264 19.2029 88.6354 18.1537 90.3355 18.1537H90.3607C92.5143 18.1664 93.9122 19.8602 94.4915 23.2227C94.693 24.4109 94.819 25.637 94.819 27.0149C94.819 29.2902 94.5293 31.161 94.0255 32.6273ZM34.1923 15.5371H34.1797C31.1949 15.5498 28.7139 16.6874 26.6863 18.8743C24.6965 21.0232 23.7016 23.7662 23.7016 27.0022C23.7016 30.2382 24.6965 32.9813 26.6863 35.1808C28.7139 37.3676 31.1949 38.4673 34.1797 38.4673H34.1923C37.1392 38.4673 39.6328 37.3676 41.6226 35.1808C43.6502 32.9813 44.6955 30.2382 44.6955 27.0022C44.6955 23.7536 43.6502 21.0232 41.6226 18.8743C39.6328 16.6874 37.1392 15.5371 34.1923 15.5371ZM37.8822 32.6273C37.1266 34.7763 35.9302 35.876 34.1923 35.876H34.1797C31.9883 35.8634 30.6282 34.1316 30.0111 30.7565C29.8348 29.6568 29.7214 28.3801 29.7214 27.0149C29.7214 24.8154 30.0111 22.9066 30.5526 21.3518C31.2579 19.2535 32.4543 18.1664 34.1797 18.1537H34.1923C36.3458 18.1537 37.7185 19.8476 38.3482 23.2227C38.5497 24.373 38.6379 25.6497 38.6379 27.0149C38.6253 29.2902 38.386 31.161 37.8822 32.6273ZM51.4584 16.7253C51.2443 16.4472 50.9169 16.2197 50.5894 16.0427C50.2494 15.9037 49.9219 15.8152 49.5567 15.8152C49.1789 15.8152 48.8515 15.8658 48.4737 16.0427C48.1462 16.1818 47.8566 16.4093 47.5669 16.7253C47.315 17.0034 47.1009 17.3194 46.9372 17.686C46.7735 18.0526 46.7357 18.4698 46.7357 18.8743L46.7735 37.8732H52.3022V18.8743C52.3022 18.4571 52.214 18.0526 52.1007 17.686C51.9118 17.3194 51.6977 17.0034 51.4584 16.7253ZM63.9011 16.5989C63.8885 16.6242 63.8633 16.6495 63.8507 16.6748C63.6366 16.9402 63.5359 17.2689 63.5359 17.6481C63.5359 18.0273 63.6366 18.3307 63.8507 18.6214C63.8633 18.6467 63.8885 18.672 63.9011 18.7099C64.153 18.988 64.4804 19.1144 64.8582 19.1144H68.8379V37.8859H74.3918V19.1018H79.7441V16.1312H64.8582C64.4804 16.1312 64.153 16.2703 63.9011 16.5989ZM57.0626 24.1328L61.7098 16.1312H58.5487L52.4911 27.0907L57.9694 37.8732H64.153L63.8381 37.2665L57.0626 24.1328Z" fill="#D90800"/>
<path d="M168.203 7.88948C167.876 7.4597 167.183 7.43442 165.798 7.801C163.934 8.31927 162.712 10.228 161.642 11.9219C161.276 12.5033 160.924 13.0595 160.571 13.5146C160.332 13.818 160.13 14.2098 159.904 14.6396C159.45 15.4992 158.934 16.4852 158.178 16.5357C156.68 16.6495 155.156 15.6256 153.922 14.7913C153.456 14.4753 153.053 14.2098 152.688 14.0202C150.144 12.7056 147.6 10.1522 145.371 7.88948L144.93 7.43442C143.847 6.34732 142.839 5.32342 141.958 4.42593C140.522 2.95961 139.477 1.91044 138.985 1.44273C137.436 -0.0109496 136.089 -0.0362311 135.421 0.570522C134.93 1.02559 134.716 1.961 135.51 3.25035C134.804 2.54247 134.099 1.83459 133.394 1.11407C132.034 -0.251123 130.925 -0.175279 130.346 0.35563C129.603 1.02559 129.54 2.6436 130.9 4.28688C130.875 4.31217 130.875 4.32481 130.875 4.32481C130.875 4.32481 130.875 4.32481 130.862 4.33745C129.993 3.78126 129.25 3.93295 128.81 4.29953C128.016 4.98212 127.928 6.57485 129.288 8.31927C130.535 9.91199 131.807 11.6058 133.029 13.2365C134.641 15.3854 136.29 17.5849 138.028 19.7338C137.436 19.165 136.87 18.5961 136.316 18.0273C134.955 16.6748 133.557 15.2716 131.983 13.9317C130.258 12.4528 129.427 12.9331 129.15 13.2112C128.444 13.9065 128.822 15.436 130.056 16.9402C131.278 18.4065 132.474 19.7844 133.62 21.1243C134.792 22.4768 136.013 23.88 137.222 25.3463C141.668 31.2748 146.517 35.6611 152.436 39.112L151.806 39.8072C151.504 40.1485 151.529 40.6668 151.856 40.9702L163.216 28.6076L163.203 28.5949C162.863 28.241 162.297 28.2536 161.982 28.6202L161.73 28.911C161.73 28.8477 161.73 28.7972 161.73 28.734C161.742 27.0148 162.435 24.6258 163.77 21.6299C163.871 21.3897 163.909 21.3265 163.921 21.276C164.173 20.3658 164.324 19.4684 164.501 18.5203C164.904 16.2323 165.332 13.8812 167.057 11.0117L167.284 10.6325C168.102 9.34316 168.644 8.47095 168.203 7.88948ZM166.604 10.2407L166.377 10.6199C164.563 13.6031 164.11 16.1565 163.72 18.4065C163.556 19.3419 163.392 20.2142 163.166 21.0737C163.153 21.1116 163.115 21.2001 163.052 21.3392C161.667 24.4361 160.962 26.939 160.936 28.7719C160.936 28.9868 160.924 29.2143 160.924 29.4292C160.924 29.5809 160.924 29.7326 160.924 29.8843L153.04 38.5179C147.146 35.1175 142.335 30.7818 137.89 24.8659C136.668 23.387 135.447 21.9712 134.263 20.6187C133.104 19.2914 131.92 17.9135 130.711 16.4472C129.578 15.0694 129.527 14.0455 129.742 13.8306C129.779 13.7927 129.855 13.7674 129.956 13.7674C130.233 13.7674 130.749 13.9697 131.48 14.589C133.029 15.9037 134.414 17.2942 135.761 18.6467C136.832 19.7212 139.111 21.8195 139.98 22.6285C140.169 22.8055 140.472 22.7929 140.648 22.6032L140.824 22.4136C140.975 22.2367 140.988 21.9839 140.849 21.7942C139.791 20.4796 135.698 15.3854 133.734 12.7688C132.5 11.1255 131.24 9.43165 129.981 7.83892C128.885 6.4358 128.973 5.31078 129.389 4.95684C129.767 4.64082 130.459 4.90628 131.127 5.6268C132.777 7.42178 134.477 9.40637 136.454 11.707C138.116 13.641 142.134 18.2169 143.255 19.4936C143.418 19.6832 143.696 19.6959 143.884 19.5316C144.061 19.3672 144.086 19.1018 143.935 18.9122C142.449 17.0919 135.27 8.30662 131.568 3.74334C130.51 2.44134 130.573 1.32896 130.951 0.987665C131.265 0.70957 131.971 0.823336 132.865 1.72082C137.159 6.04394 141.466 10.3671 145.774 14.6902L146.781 15.7014C146.957 15.8784 147.247 15.8658 147.411 15.6888C147.562 15.5245 147.562 15.259 147.398 15.0947C146.655 14.311 144.602 12.1115 143.595 11.0623C141.152 8.53416 138.859 6.14507 136.605 3.32619C135.774 2.27702 135.724 1.48065 136.038 1.20256C136.404 0.861258 137.386 1.05087 138.482 2.07476C138.96 2.52983 140.056 3.62957 141.429 5.03269C142.31 5.93017 143.318 6.95407 144.401 8.04117L144.842 8.48359C147.121 10.7842 149.703 13.3882 152.373 14.766C152.688 14.9303 153.078 15.1832 153.519 15.4865C154.778 16.3335 156.503 17.509 158.292 17.37C159.513 17.2942 160.168 16.0427 160.685 15.0315C160.886 14.6523 161.075 14.2857 161.264 14.0329C161.642 13.5525 161.994 12.9837 162.372 12.3769C163.367 10.8095 164.488 9.02714 166.05 8.61C167.145 8.30663 167.485 8.36983 167.573 8.39511C167.548 8.67321 167.007 9.57069 166.604 10.2407Z" fill="#182341"/>
</svg>
